<svg xmlns="http://www.w3.org/2000/svg" width="960" height="168" viewBox="0 0 960 168" role="img" aria-labelledby="label">
<!-- Generated by scripts/update_catalog.py. -->
<title id="label">epub-translator</title>
<defs><clipPath id="bounds"><rect width="960" height="168" rx="16"/></clipPath></defs>
<g clip-path="url(#bounds)">
  <rect width="960" height="168" fill="#FBE9F1"/>
  <rect x="1" y="1" width="958" height="166" rx="15" fill="none" stroke="#BC547D" stroke-opacity=".15"/>
  <g fill="none" stroke="#BC547D" stroke-width="2" opacity=".2" transform="translate(824 -18) rotate(18)">
    <rect width="112" height="112" rx="24"/>
    <rect x="28" y="28" width="112" height="112" rx="24"/>
    <rect x="56" y="56" width="112" height="112" rx="24"/>
  </g>
  <svg xmlns="http://www.w3.org/2000/svg" width="88" height="88" viewBox="0 0 64 64" role="img" aria-labelledby="title" x="32" y="40">
  <title id="title">Epub Translator</title>
  <rect x="1" y="1" width="62" height="62" rx="15" fill="#F6EFE2" />
  <g fill="none" stroke="#203D37" stroke-width="2.2" stroke-linecap="round" stroke-linejoin="round">
    <path d="M32 19c-7-5-13-5-20-3v31c7-2 13-2 20 3 7-5 13-5 20-3V16c-7-2-13-2-20 3Z" /><path d="M32 19v31M18 25l8 2M18 33l8 2M38 27l8-2M38 35l8-2" /><path d="M38 14v9l4-3 4 2v-9" fill="#C56D3A" />
  </g>
</svg>
  <text x="148" y="68" fill="#BC547D" font-family="Arial, sans-serif" font-size="13" font-weight="700" letter-spacing="2.5">CODEX SKILL</text>
  <text x="146" y="111" fill="#242735" font-family="ui-monospace, SFMono-Regular, Consolas, monospace" font-size="44" font-weight="700">epub-translator</text>
</g>
</svg>
