<svg xmlns="http://www.w3.org/2000/svg" width="960" height="168" viewBox="0 0 960 168" role="img" aria-labelledby="label">
<!-- Generated by scripts/update_catalog.py. -->
<title id="label">jev-developer</title>
<defs><clipPath id="bounds"><rect width="960" height="168" rx="16"/></clipPath></defs>
<g clip-path="url(#bounds)">
  <rect width="960" height="168" fill="#FBE9F1"/>
  <rect x="1" y="1" width="958" height="166" rx="15" fill="none" stroke="#BC547D" stroke-opacity=".15"/>
  <g fill="none" stroke="#BC547D" stroke-width="2" opacity=".2" transform="translate(824 -18) rotate(18)">
    <rect width="112" height="112" rx="24"/>
    <rect x="28" y="28" width="112" height="112" rx="24"/>
    <rect x="56" y="56" width="112" height="112" rx="24"/>
  </g>
  <svg xmlns="http://www.w3.org/2000/svg" width="88" height="88" viewBox="0 0 64 64" role="img" aria-labelledby="title" x="32" y="40">
  <title id="title">Jev Developer</title>
  <rect width="64" height="64" fill="#FFFFFF" />
<path d="M22 21h6v22h-6M28 32h5" fill="none" stroke="#498FEC" stroke-width="2.3" stroke-linecap="round" stroke-linejoin="round" />
<rect x="9" y="14" width="14" height="14" rx="4" fill="#DDEBFD" />
<rect x="9" y="36" width="14" height="14" rx="4" fill="#DDEBFD" />
<circle cx="44" cy="32" r="13" fill="#498FEC" />
<path d="m38 32 4 4 8-8" fill="none" stroke="#FFFFFF" stroke-width="2.7" stroke-linecap="round" stroke-linejoin="round" />
</svg>
  <text x="148" y="68" fill="#BC547D" font-family="Arial, sans-serif" font-size="13" font-weight="700" letter-spacing="2.5">CODEX SKILL</text>
  <text x="146" y="111" fill="#242735" font-family="ui-monospace, SFMono-Regular, Consolas, monospace" font-size="44" font-weight="700">jev-developer</text>
</g>
</svg>
